<svg id="Layer_1" data-name="Layer 1" xmlns="http://www.w3.org/2000/svg" width="1000" height="1000" viewBox="0 0 1000 1000">
  <defs>
    <style>
      .cls-1 {
        fill: #fff;
      }

      .cls-2 {
        fill: #c4005b;
      }
    </style>
  </defs>
  <rect class="cls-1" width="1000" height="1000"/>
  <path class="cls-2" d="M415.37,925.07c32-36.47,63.3-70.81,93.12-106.38C548.49,771,586,721.47,607.72,662c26.85-73.32,10.38-136.75-50.16-186.95-23.7-19.66-48.75-37.69-73.11-56.56a159.93,159.93,0,0,1-13-11.31c-31.12-30.09-31.49-48.29-.52-79,10.33-10.25,21.95-19.32,33.63-28.06,11.23-8.39,50.55-31.67,63.24-40.08-11.89,2.69-57,28.8-74.18,41.22-21.92,15.81-42.86,35.37-49.38,48.22-8.24,16.25-6.75,32.89,4.81,45.56a889.64,889.64,0,0,0,66.72,65.71c23.47,20.85,48.7,39.72,62.81,68.92,22.61,46.77,13,91.83-8.54,135.59-30.72,62.37-77.73,112.18-126.55,160.36-21.12,20.85-43,40.89-66.39,63-68.72-71.55-142-137-202-212.83-96.46-121.76-113-261.61-55-405.25C224.68,11.63,547.6-69.92,763.55,108,877.73,202,926,326.73,910.69,474.36,900.55,572.25,857.26,654.55,788,723.73Q667.51,844.06,547.17,964.48c-30.28,30.25-61.11,30.13-91.44,0C442.75,951.59,429.56,938.91,415.37,925.07ZM677.25,200.65c-4.28-3.48-7.59-6.5-11.22-9.07-45.14-31.93-95.57-49.4-150.57-51.86C357.17,132.65,223.65,252.19,215.75,410.1c-5.55,110.95,41.12,197.12,133.38,258.58,4.12,2.74,11.21,5.21,15,3.53,34.06-14.91,67.34-31.55,93.34-59.07C481.32,588,484,562,464,533.76c-12.62-17.76-28.59-33.13-43.11-49.52-16.25-18.35-34.29-35.41-48.46-55.24-21-29.42-17.66-59.12,6.77-85.44a188.45,188.45,0,0,1,24.24-22.17c43.37-32.8,92.79-54.15,143.06-73.45C589.22,231.52,632.61,216.72,677.25,200.65ZM741.5,578.8c2-.8,2.71-.84,2.93-1.19,71.83-112,55.23-269.1-50.84-363.48-2.73-2.43-10-2.8-13.41-.95-36.7,19.8-74,38.79-109.11,61.11-17.16,10.9-31.89,27-44.6,43.16-14.86,18.89-13.12,40.54,2.37,58.95,9.33,11.09,19.87,21.72,31.61,30.12,31.8,22.78,64.94,43.69,96.78,66.42C695.07,500,729.27,530.38,741.5,578.8Z"/>
</svg>
