<svg version="1.1" width="40" height="40" id="Layer_1" xmlns="http://www.w3.org/2000/svg"
     x="0px" y="0px"
     viewBox="0 0 1000 1000" style="" xml:space="preserve">
<style type="text/css">
	.st0{fill:#FFFFFF;}
	.st1{fill:#C4005B;}
</style>
    <!--<rect class="st0" width="1000" height="1000"/>-->
    <g>
	<path class="st1" d="M415.37,925.07c32.02-36.47,63.3-70.82,93.11-106.38c40-47.72,77.47-97.21,99.23-156.66
		c26.85-73.32,10.38-136.75-50.16-186.95c-23.7-19.66-48.76-37.69-73.11-56.56c-4.52-3.51-8.84-7.32-12.96-11.3
		c-31.12-30.09-31.49-48.29-0.52-79.03c10.33-10.25,21.95-19.32,33.63-28.06c11.23-8.39,50.55-31.67,63.24-40.08
		c-11.89,2.69-56.96,28.8-74.18,41.22c-21.91,15.81-42.86,35.37-49.38,48.22c-8.24,16.25-6.75,32.89,4.8,45.56
		c21.01,23.04,43.4,45,66.72,65.71c23.47,20.84,48.7,39.72,62.82,68.92c22.61,46.77,13,91.83-8.55,135.59
		c-30.71,62.37-77.73,112.18-126.54,160.36c-21.12,20.85-43.04,40.89-66.39,63c-68.73-71.55-141.97-136.99-202.06-212.84
		C78.63,554.03,62.1,414.18,120.11,270.54C224.68,11.63,547.6-69.92,763.55,107.97c114.18,94.06,162.42,218.76,147.14,366.39
		c-10.13,97.88-53.43,180.18-122.7,249.37c-80.31,80.21-160.51,160.53-240.82,240.75c-30.28,30.24-61.1,30.12-91.44,0
		C442.75,951.59,429.56,938.91,415.37,925.07z M677.25,200.65c-4.28-3.48-7.59-6.5-11.22-9.07c-45.13-31.93-95.57-49.4-150.56-51.85
		c-158.29-7.07-291.82,112.47-299.71,270.38c-5.55,110.95,41.12,197.12,133.38,258.58c4.12,2.74,11.21,5.21,15.04,3.53
		c34.06-14.91,67.33-31.55,93.34-59.07c23.8-25.19,26.52-51.16,6.45-79.39c-12.62-17.75-28.59-33.12-43.11-49.51
		c-16.25-18.35-34.29-35.41-48.46-55.24c-21.02-29.42-17.66-59.12,6.76-85.44c7.43-8.01,15.54-15.59,24.24-22.17
		c43.37-32.8,92.79-54.15,143.05-73.45C589.22,231.52,632.61,216.72,677.25,200.65z M741.5,578.8c2.03-0.8,2.71-0.85,2.93-1.19
		c71.83-111.99,55.23-269.1-50.84-363.48c-2.73-2.43-9.98-2.8-13.41-0.95c-36.7,19.8-73.97,38.79-109.11,61.11
		c-17.16,10.9-31.88,26.98-44.6,43.15c-14.86,18.9-13.11,40.55,2.37,58.95c9.33,11.09,19.87,21.72,31.61,30.13
		c31.8,22.78,64.94,43.69,96.78,66.41C695.07,499.95,729.27,530.38,741.5,578.8z"/>
</g>
</svg>
