<svg xmlns="http://www.w3.org/2000/svg" version="1.1" width="1000px" height="1000px"
     style="shape-rendering:geometricPrecision; text-rendering:geometricPrecision; image-rendering:optimizeQuality; fill-rule:evenodd; clip-rule:evenodd">
    <g>
        <path style="opacity:1" fill="#fefefe"
              d="M -0.5,-0.5 C 332.833,-0.5 666.167,-0.5 999.5,-0.5C 999.5,332.833 999.5,666.167 999.5,999.5C 666.167,999.5 332.833,999.5 -0.5,999.5C -0.5,666.167 -0.5,332.833 -0.5,-0.5 Z"/>
    </g>
    <g>
        <path style="opacity:1" fill="#c4015b"
              d="M 470.5,12.5 C 625.486,7.9172 749.319,67.2505 842,190.5C 894.205,266.157 917.872,350.157 913,442.5C 908.702,543.037 873.036,630.371 806,704.5C 716.833,793.667 627.667,882.833 538.5,972C 515.547,990.156 491.88,991.156 467.5,975C 449.186,959.02 431.853,942.02 415.5,924C 451.4,884.103 486.567,843.603 521,802.5C 552.583,765.033 578.916,724.033 600,679.5C 614.19,648.688 620.524,616.354 619,582.5C 615.399,552.977 604.399,526.644 586,503.5C 576.833,493 567,483.167 556.5,474C 532.785,455.283 508.785,436.95 484.5,419C 471.39,408.611 460.224,396.445 451,382.5C 445.562,369.962 446.562,357.962 454,346.5C 470.316,325.85 489.482,308.35 511.5,294C 528.833,283.333 546.167,272.667 563.5,262C 523.698,278.49 488.198,301.657 457,331.5C 450.178,338.468 444.845,346.468 441,355.5C 437.36,366.101 438.026,376.434 443,386.5C 471.901,420.069 503.401,450.902 537.5,479C 592.677,526.868 605.51,584.368 576,651.5C 561.877,682.249 544.544,710.916 524,737.5C 494.336,772.839 462.836,806.672 429.5,839C 411.698,855.134 394.198,871.634 377,888.5C 324.943,837.111 273.61,785.111 223,732.5C 195.023,702.841 169.69,671.174 147,637.5C 79.3888,526.982 67.7221,410.648 112,288.5C 163.028,152.804 258.195,64.9707 397.5,25C 421.717,19.2977 446.051,15.1311 470.5,12.5 Z"/>
    </g>
    <g>
        <path style="opacity:1" fill="#fefefe"
              d="M 476.5,139.5 C 544.311,134.784 606.311,151.284 662.5,189C 667.019,192.429 671.352,196.096 675.5,200C 640.167,212.667 604.833,225.333 569.5,238C 527.149,253.011 486.149,271.011 446.5,292C 417.838,307.321 392.671,327.155 371,351.5C 354.335,374.825 353.335,398.825 368,423.5C 372.615,430.45 377.615,437.116 383,443.5C 409.406,471.235 435.073,499.569 460,528.5C 481.919,555.57 481.919,582.57 460,609.5C 443.102,627.073 423.936,641.573 402.5,653C 390.045,659.562 377.378,665.562 364.5,671C 361.167,671.667 357.833,671.667 354.5,671C 254.198,608.236 208.031,517.402 216,398.5C 226.638,304.98 271.138,232.813 349.5,182C 388.735,158.311 431.068,144.144 476.5,139.5 Z"/>
    </g>
    <g>
        <path style="opacity:1" fill="#fefefe"
              d="M 681.5,211.5 C 685.792,211.035 689.792,211.868 693.5,214C 770.149,287.281 799.649,376.448 782,481.5C 775.026,515.767 762.193,547.601 743.5,577C 742.552,577.483 741.552,577.649 740.5,577.5C 735.75,558 727.25,540.334 715,524.5C 699.407,506.239 681.907,490.072 662.5,476C 624.151,450.16 586.151,423.827 548.5,397C 539.931,389.1 532.097,380.6 525,371.5C 515.318,356.533 513.985,340.867 521,324.5C 539.169,297.326 562.669,276.16 591.5,261C 621.402,244.218 651.402,227.718 681.5,211.5 Z"/>
    </g>
</svg>
