<svg xmlns="http://www.w3.org/2000/svg" version="1.1" width="512px" height="512px"
     style="shape-rendering:geometricPrecision; text-rendering:geometricPrecision; image-rendering:optimizeQuality; fill-rule:evenodd; clip-rule:evenodd">
    <g>
        <path style="opacity:0.987" fill="#000000"
              d="M 120.5,127.5 C 210.501,127.333 300.501,127.5 390.5,128C 405.473,135.924 408.973,147.424 401,162.5C 397.731,165.883 393.897,168.383 389.5,170C 300.167,170.667 210.833,170.667 121.5,170C 106.3,163.07 102.134,151.904 109,136.5C 112.161,132.491 115.994,129.491 120.5,127.5 Z"/>
    </g>
    <g>
        <path style="opacity:0.966" fill="#000000"
              d="M 208.5,233.5 C 268.168,233.333 327.834,233.5 387.5,234C 402.198,238.553 407.698,248.386 404,263.5C 400.605,270.561 395.105,275.061 387.5,277C 327.833,277.667 268.167,277.667 208.5,277C 194.645,272.469 189.145,262.969 192,248.5C 195.198,240.795 200.698,235.795 208.5,233.5 Z"/>
    </g>
    <g>
        <path style="opacity:0.987" fill="#000000"
              d="M 121.5,340.5 C 210.834,340.333 300.167,340.5 389.5,341C 399.79,344.393 405.124,351.559 405.5,362.5C 404.774,372.449 399.774,379.283 390.5,383C 300.5,383.667 210.5,383.667 120.5,383C 107.947,377.349 103.447,367.849 107,354.5C 109.774,347.557 114.607,342.89 121.5,340.5 Z"/>
    </g>
</svg>
