<svg id="Layer_1" data-name="Layer 1" height="40" viewBox="0 0 833.94 303.01">
    <defs>
        <style>
            .cls-1 {
            fill: #f7f7f9;
            }

            .cls-2 {
            fill: #ff1313;
            }
        </style>
    </defs>
    <g id="R_First_Code" data-name="R First Code">
        <path id="R" class="cls-1"
              d="M116.58,524.37c7-10.11,16-16.1,28-16.15a66.28,66.28,0,0,1,2.49-7.74c3.23-7,9.17-10.79,16.34-12.45,13-3,25-.58,35.42,8a27.1,27.1,0,0,1,5.31,6.13,3.29,3.29,0,0,0,3.94,1.75,67.92,67.92,0,0,0,15.85-4.2c11.2-4.86,18.25-13.37,21.88-24.85,3.27-10.31,4-20.89,3.07-31.62a65.17,65.17,0,0,0-8.36-27.77c-6.56-11.25-16.09-19.2-27.74-24.73a92.15,92.15,0,0,0-31.38-8.19c-18.93-1.75-37.26,2.71-55.21,7.12-.24.06-.48.15-.71.22l-.27-.52c4.63-2.59,9.13-5.44,13.9-7.74A109.55,109.55,0,0,1,187.53,371c18.42,0,35.86,4,52.05,12.81a86.33,86.33,0,0,1,40.11,44.83,97.18,97.18,0,0,1,6.5,46.56A91.24,91.24,0,0,1,272.86,515c-8.7,13.94,11.61,27.52-5.6,33.84-.53.24-1,.5-1.59.78a4.47,4.47,0,0,0,.14.83c3.06,19.36-20.24,24.72-13.6,37.65,8.65,16.83,21,30.45,35.86,42,15,11.66,32.05,18.81,50.47,23a196.42,196.42,0,0,0,41.57,4.55c.69,0,1.39.05,2.08.08a2.56,2.56,0,0,1,.5.26c-1,.42-1.91.8-2.81,1.12a161.65,161.65,0,0,1-36.49,8.54,153.43,153.43,0,0,1-39.24-.7,129.54,129.54,0,0,1-55.26-21.75,127.66,127.66,0,0,1-35.76-38.11c-7.71-12.37-12.4-25.87-16-39.87-2.23-8.68-4.91-17.21-9.53-25-8.22-13.81-20.34-21.6-36.23-23.64a59.5,59.5,0,0,0-33.63,5.3C117.52,524,117.27,524.08,116.58,524.37Z"
              transform="translate(-73.21 -371)"/>
        <path class="cls-2"
              d="M154.16,673.91c-21.06,0-51.71-4.45-51.71-44,0-24.33,2.34-49.36,2.34-70.88,0-11.7-.93-27.61-31.58-29.71V519c30.88-2.33,31.58-17.54,31.58-29.47,0-22.46-5.43-48.42-2.34-69.25,2.7-18.12,26.09-37.62,51.71-44.32v7.69C128,387,124.68,402.3,124.68,416.8c0,21.52,4.44,45.39,4.44,67.14,0,18.72-8,35.09-29.47,39.54v1.4c21.29,4.45,29.47,20.82,29.47,39.54,0,22.46-4.42,45.39-4.44,66.21,0,43.13,28.55,41.83,62,43.38Z"
              transform="translate(-73.21 -371)"/>
    </g>
    <g id="O_Left" data-name="O Left">
        <path class="cls-2"
              d="M408.83,630.31l-29.37-.65a4,4,0,1,1,0-7.94c4,0,7.93,0,11.89,0a4,4,0,0,0,3.9-2.41,3.83,3.83,0,0,0-.55-4.21,4,4,0,0,0-3.42-1.48c-5.74,0-11.49.06-17.23.09-1.5,0-3,0-4.49,0a4,4,0,0,1-4.24-4c0-2.17,1.75-3.74,4.18-3.79,1,0,2.11,0,3.16,0a4.07,4.07,0,0,0-.19-8.13c-2.5,0-5,0-7.52,0-2.95,0-5.91,0-8.86,0a4,4,0,1,1,0-7.92c3.56-.06,7.12,0,10.68,0a3.76,3.76,0,0,0,3.61-2.42,3.91,3.91,0,0,0-.68-4.3,4,4,0,0,0-3.23-1.38q-8.09,0-16.15,0a3.91,3.91,0,0,1-4.15-3.57,3.77,3.77,0,0,1,3.92-4.23c4.77,0-1.49,0,3.29,0h15.9c2.42,0,4-1,4.63-2.81a4.08,4.08,0,0,0-3.45-5.33,14.17,14.17,0,0,0-1.46,0H341.31c-2.1,0-3.51-.91-4.1-2.57a3.92,3.92,0,0,1,3.46-5.33c1.09-.1,2.19,0,3.28-.05,3.44,0,6.88,0,10.32,0a4,4,0,0,0,4-5.36,4,4,0,0,0-4-2.73c-4.65,0-9.31,0-14,0a3.89,3.89,0,0,1-4.12-3.73,3.83,3.83,0,0,1,3.94-4.24c4.81,0,9.63,0,14.44,0a4,4,0,0,0,4.24-3.9,3.89,3.89,0,0,0-3.84-4.13c-2.47-.07-4.94,0-7.41,0a4.13,4.13,0,0,1-3.56-2.6,3.59,3.59,0,0,1,1.1-4.27,5.72,5.72,0,0,1,3-1c7.56-.08,15.13,0,22.7,0a4,4,0,1,0,0-8.05c-4.05,0-8.09,0-12.14,0a4.07,4.07,0,0,1-4.26-4.72,3.87,3.87,0,0,1,3.82-3.25c2.43,0,4.86,0,7.28,0a3.94,3.94,0,0,0,4-3.41,3.86,3.86,0,0,0-2.62-4.38,5,5,0,0,0-1.54-.21H346.42a3.8,3.8,0,0,1-3.7-2.28,4,4,0,0,1,3.57-5.67h33.87a15.86,15.86,0,0,0,2.76,0,4,4,0,0,0,3.23-4.23,3.89,3.89,0,0,0-4-3.59c-4.53,0-9.06,0-13.59,0-3.21,0-5.19-2.86-4-5.63a3.73,3.73,0,0,1,3.64-2.35c2.75,0,5.5,0,8.25,0H394c2.25,0,3.73-.92,4.36-2.63a3.92,3.92,0,0,0-3.7-5.32c-4.69,0-9.39,0-14.08,0-3.05,0-5-2.33-4.28-5.08a3.8,3.8,0,0,1,4-2.88c4.12.15,8.24.52,12.36.54,7.89,0,15.78,0,23.66-.2,8.5-.15,17-.6,25.47.18a87.29,87.29,0,0,1,33.88,10.24,81.74,81.74,0,0,1,42.94,62.71,89.56,89.56,0,0,1-.24,23.7A82.09,82.09,0,0,1,504.47,594c-12.83,18.71-30.65,30-52.61,35a86.29,86.29,0,0,1-20.71,2c-7.45-.12-14.89-.28-22.33-.42Zm92.78-85a66.87,66.87,0,0,0-9.08-34,63.68,63.68,0,0,0-66.43-30.45C405,484.74,390,496.67,380.68,515.82c-5.12,10.47-6.91,21.58-6.5,33.14.45,12.63,3.72,24.45,10.68,35,15.26,23.16,41.72,33.22,68.89,26.89a57.1,57.1,0,0,0,28.76-16C495.38,581.53,501.68,565.44,501.61,545.33Z"
              transform="translate(-73.21 -371)"/>
        <path class="cls-2"
              d="M351.89,621.71c4.57,0,9.14,0,13.71,0a3.78,3.78,0,0,1,3.66,2.33,3.42,3.42,0,0,1-.6,4.15,4.85,4.85,0,0,1-2.92,1.41c-9.26.1-18.52.08-27.78,0a4,4,0,1,1,.1-7.93C342.67,621.68,347.28,621.71,351.89,621.71Z"
              transform="translate(-73.21 -371)"/>
        <path class="cls-2"
              d="M319.81,542.27c3.19,0,6.38,0,9.57,0a3.77,3.77,0,0,1,3.63,3.3,3.9,3.9,0,0,1-2.39,4.3,5.31,5.31,0,0,1-1.89.34c-5.94,0-11.88,0-17.81,0A3.91,3.91,0,0,1,307,547.9a3.86,3.86,0,0,1,.52-4.21,3.94,3.94,0,0,1,3.31-1.45h9Z"
              transform="translate(-73.21 -371)"/>
        <path class="cls-2"
              d="M336.65,597.9c-2.59,0-5.18,0-7.77,0a4,4,0,1,1-.16-7.9c5.29-.07,10.6-.07,15.89,0a4,4,0,1,1-.19,7.9C341.83,597.92,339.24,597.9,336.65,597.9Z"
              transform="translate(-73.21 -371)"/>
        <path class="cls-2"
              d="M329,534.37c-1.45,0-2.9,0-4.36,0-2.57-.06-4.31-1.66-4.33-3.93a4.12,4.12,0,0,1,4.36-4.06q4.49,0,9,0a4,4,0,1,1,.09,8c-1.58.06-3.15,0-4.73,0Z"
              transform="translate(-73.21 -371)"/>
        <path class="cls-2"
              d="M367.38,463.18c1,0,2,0,3,0a3.93,3.93,0,0,1,3.83,3.78,3.74,3.74,0,0,1-3.17,4,47,47,0,0,1-7.6,0,3.69,3.69,0,0,1-3.12-4,4,4,0,0,1,3.76-3.75C365.2,463.15,366.29,463.18,367.38,463.18Z"
              transform="translate(-73.21 -371)"/>
        <path class="cls-2"
              d="M334,582.18a25.36,25.36,0,0,1-3.61-.33,3.84,3.84,0,0,1-2.92-4.41,3.89,3.89,0,0,1,3.87-3.33c1.66,0,3.32,0,5,0a4,4,0,0,1,4.21,3.9,4.06,4.06,0,0,1-4.1,4.08c-.81,0-1.62,0-2.43,0Z"
              transform="translate(-73.21 -371)"/>
    </g>
    <g id="O_Right" data-name="O Right">
        <path class="cls-2"
              d="M557.39,630.54c-7.44.14-14.89.3-22.33.42a86.29,86.29,0,0,1-20.71-2c-22-5-39.78-16.25-52.62-35a82.2,82.2,0,0,1-13.83-35.08,89.56,89.56,0,0,1-.24-23.7A81.66,81.66,0,0,1,490.6,472.5a87.29,87.29,0,0,1,33.87-10.24c8.48-.78,17-.33,25.48-.18,7.88.15,15.77.24,23.66.2,4.12,0,8.24-.39,12.36-.54a3.8,3.8,0,0,1,4,2.88c.7,2.75-1.23,5.07-4.28,5.08-4.69,0-9.39,0-14.08,0a3.92,3.92,0,0,0-3.7,5.32c.62,1.71,2.11,2.62,4.36,2.63h17.48c2.75,0,5.5,0,8.25,0a3.73,3.73,0,0,1,3.64,2.35c1.23,2.77-.75,5.6-4,5.63-4.53,0-9.06,0-13.59,0a3.89,3.89,0,0,0-4,3.59,4,4,0,0,0,3.23,4.23,15.86,15.86,0,0,0,2.76,0h33.87a4,4,0,0,1,3.57,5.67,3.8,3.8,0,0,1-3.7,2.28H600.85a4.94,4.94,0,0,0-1.54.21,3.85,3.85,0,0,0-2.62,4.38,3.94,3.94,0,0,0,3.95,3.41c2.43.06,4.86,0,7.29,0a3.87,3.87,0,0,1,3.82,3.25,4.08,4.08,0,0,1-4.26,4.72c-4,0-8.09,0-12.14,0a4,4,0,1,0,0,8.05c7.57,0,15.13,0,22.7,0a5.75,5.75,0,0,1,3,1,3.59,3.59,0,0,1,1.1,4.27,4.13,4.13,0,0,1-3.56,2.6c-2.47,0-4.94,0-7.41,0a3.89,3.89,0,0,0-3.84,4.13,4,4,0,0,0,4.24,3.9c4.81,0,9.63,0,14.44,0a3.83,3.83,0,0,1,3.94,4.24,3.89,3.89,0,0,1-4.12,3.73c-4.65,0-9.31,0-14,0a4,4,0,0,0-4,2.73,4,4,0,0,0,4,5.36c3.44.05,6.88,0,10.32,0,1.09,0,2.19,0,3.28.05a3.92,3.92,0,0,1,3.46,5.33c-.59,1.66-2,2.56-4.1,2.57H597.21a14.17,14.17,0,0,0-1.46,0A4.08,4.08,0,0,0,592.3,571c.6,1.81,2.21,2.8,4.63,2.81h15.9c4.77,0-1.48,0,3.29,0A3.78,3.78,0,0,1,620,578a3.91,3.91,0,0,1-4.15,3.57q-8.07,0-16.15,0a4,4,0,0,0-3.23,1.38,3.91,3.91,0,0,0-.68,4.3,3.76,3.76,0,0,0,3.61,2.42c3.56,0,7.12,0,10.68,0a4,4,0,1,1,0,7.92c-3,0-5.91,0-8.86,0-2.51,0-5,0-7.53,0a4.07,4.07,0,0,0-.18,8.13c1,.07,2.11,0,3.16,0,2.43,0,4.16,1.62,4.17,3.79a4,4,0,0,1-4.23,4c-1.5,0-3,0-4.49,0-5.74,0-11.49,0-17.23-.09a4,4,0,0,0-3.43,1.48,3.85,3.85,0,0,0-.54,4.21,4,4,0,0,0,3.89,2.41c4,0,7.93,0,11.9,0a4,4,0,1,1,0,7.94l-29.37.65ZM483.7,594.91a57.06,57.06,0,0,0,28.76,16c27.17,6.33,53.63-3.73,68.89-26.89,7-10.59,10.23-22.41,10.68-35,.41-11.56-1.38-22.67-6.5-33.14-9.36-19.15-24.29-31.08-45.42-34.91a63.68,63.68,0,0,0-66.43,30.45,66.87,66.87,0,0,0-9.08,34C464.53,565.44,470.83,581.53,483.7,594.91Z"
              transform="translate(-73.21 -371)"/>
        <path class="cls-2"
              d="M614.32,621.71c-4.57,0-9.14,0-13.71,0A3.77,3.77,0,0,0,597,624a3.43,3.43,0,0,0,.59,4.15,4.88,4.88,0,0,0,2.93,1.41c9.26.1,18.52.08,27.77,0a4,4,0,1,0-.09-7.93C623.54,621.68,618.93,621.71,614.32,621.71Z"
              transform="translate(-73.21 -371)"/>
        <path class="cls-2"
              d="M646.4,542.27c-3.19,0-6.38,0-9.57,0a3.77,3.77,0,0,0-3.63,3.3,3.9,3.9,0,0,0,2.39,4.3,5.31,5.31,0,0,0,1.89.34c5.94,0,11.87,0,17.81,0a3.91,3.91,0,0,0,3.91-2.34,3.85,3.85,0,0,0-.53-4.21,3.91,3.91,0,0,0-3.3-1.45h-9Z"
              transform="translate(-73.21 -371)"/>
        <path class="cls-2"
              d="M629.56,597.9c2.59,0,5.18,0,7.77,0a4,4,0,1,0,.16-7.9q-7.95-.11-15.9,0a4,4,0,1,0,.2,7.9C624.38,597.92,627,597.9,629.56,597.9Z"
              transform="translate(-73.21 -371)"/>
        <path class="cls-2"
              d="M637.22,534.37c1.46,0,2.91,0,4.36,0,2.58-.06,4.32-1.66,4.34-3.93a4.13,4.13,0,0,0-4.37-4.06q-4.47,0-9,0a4,4,0,1,0-.09,8c1.57.06,3.15,0,4.72,0Z"
              transform="translate(-73.21 -371)"/>
        <path class="cls-2"
              d="M598.83,463.18c-1,0-2,0-3,0A3.93,3.93,0,0,0,592,467a3.74,3.74,0,0,0,3.17,4,47,47,0,0,0,7.6,0,3.69,3.69,0,0,0,3.12-4,4,4,0,0,0-3.76-3.75C601,463.15,599.92,463.18,598.83,463.18Z"
              transform="translate(-73.21 -371)"/>
        <path class="cls-2"
              d="M632.19,582.18a25.36,25.36,0,0,0,3.61-.33,3.84,3.84,0,0,0,2.92-4.41,3.89,3.89,0,0,0-3.87-3.33c-1.66,0-3.32,0-5,0a3.94,3.94,0,0,0-4.21,3.9,4.06,4.06,0,0,0,4.1,4.08c.8,0,1.62,0,2.42,0Z"
              transform="translate(-73.21 -371)"/>
    </g>
    <g id="X">
        <path class="cls-1"
              d="M737.72,491.83l13-16.94c25.31-32.94,51.78-59,77-92A4.16,4.16,0,0,1,831.5,381c8.59.09,26.93,0,36.15,0-29.43,38.31-56.21,69.29-85.47,107.37,33.32,28.64,73.42,66.34,107.05,95.24-.81.09-1.11.17-1.41.16-11.09-.32-31.94-.63-43-1a3.79,3.79,0,0,1-2.14-.93c-24.15-20.6-58.53-50.34-82.66-71l-20.35-17.38C739,493,738.43,492.45,737.72,491.83Z"
              transform="translate(-73.21 -371)"/>
        <polygon class="cls-2" points="619.63 293.57 643.08 293.16 833.94 58.71 810.5 59.13 619.63 293.57"/>
        <path class="cls-1"
              d="M640.27,462.32h2c10.42,0,30.59,0,41,0a4.49,4.49,0,0,1,2.76.89c30.28,25.78,66.37,51.6,96.61,77.43l.78.69c-1,1.33-1.93,2.62-2.89,3.87-33.66,43.82-64.07,74-97.69,117.8a5.06,5.06,0,0,1-4.54,2.33c-8.86-.13-27.47-.06-36.82-.06,34.82-44.86,60.27-75.73,95-120.47q-48.2-41.08-96.28-82.06Z"
              transform="translate(-73.21 -371)"/>
    </g>
</svg>
